<svg width="42" height="16" viewBox="0 0 42 16" fill="none" xmlns="http://www.w3.org/2000/svg">
    <path d="M5.65199 10.61H12.472L9.17199 2.47H8.95199L5.65199 10.61ZM11.592 0.599999L17.862 16H14.694L13.242 12.26H4.88199L3.42999 16H0.261992L6.53199 0.599999H11.592ZM22.8189 16H19.6289V0.599999H22.8189V16ZM33.8223 0.599999C34.9223 0.599999 35.905 0.724666 36.7703 0.973999C37.6503 1.20867 38.391 1.56067 38.9923 2.03C39.5936 2.48467 40.0556 3.04933 40.3783 3.724C40.701 4.384 40.8623 5.13933 40.8623 5.99C40.8623 7.16333 40.569 8.15333 39.9823 8.96C39.3956 9.76667 38.5523 10.3827 37.4523 10.808L41.0823 16H37.4523L34.2183 11.38H33.8223H29.0923V16H25.9023V0.599999H33.8223ZM29.0923 2.25V9.73H33.8223C34.981 9.73 35.8756 9.42933 36.5063 8.828C37.137 8.212 37.4523 7.266 37.4523 5.99C37.4523 4.714 37.137 3.77533 36.5063 3.174C35.8756 2.558 34.981 2.25 33.8223 2.25H29.0923Z" fill="#656293"/>
</svg>
